<svg width="55" height="61" viewBox="0 0 55 61" fill="none" xmlns="http://www.w3.org/2000/svg">
<path d="M48.2083 6.87516H35.8425C34.6 3.4435 31.3458 0.958496 27.5 0.958496C23.6542 0.958496 20.4 3.4435 19.1575 6.87516H6.79167C3.5375 6.87516 0.875 9.53766 0.875 12.7918V54.2085C0.875 57.4627 3.5375 60.1252 6.79167 60.1252H48.2083C51.4625 60.1252 54.125 57.4627 54.125 54.2085V12.7918C54.125 9.53766 51.4625 6.87516 48.2083 6.87516ZM27.5 6.87516C29.1271 6.87516 30.4583 8.20641 30.4583 9.8335C30.4583 11.4606 29.1271 12.7918 27.5 12.7918C25.8729 12.7918 24.5417 11.4606 24.5417 9.8335C24.5417 8.20641 25.8729 6.87516 27.5 6.87516ZM27.5 18.7085C32.4108 18.7085 36.375 22.6727 36.375 27.5835C36.375 32.4943 32.4108 36.4585 27.5 36.4585C22.5892 36.4585 18.625 32.4943 18.625 27.5835C18.625 22.6727 22.5892 18.7085 27.5 18.7085ZM45.25 54.2085H9.75V50.0668C9.75 44.1502 21.5833 40.896 27.5 40.896C33.4167 40.896 45.25 44.1502 45.25 50.0668V54.2085Z" fill="#4B4B4B"/>
</svg>
